<mxfile host="app.diagrams.net" modified="2023-12-13T20:19:52.516Z" agent="Mozilla/5.0 (Windows NT 10.0; Win64; x64) AppleWebKit/537.36 (KHTML, like Gecko) Chrome/118.0.5993.732 YaBrowser/23.11.1.732 Yowser/2.5 Safari/537.36" etag="O_frJRsCTyBvj0-5AgxE" version="22.1.8" type="device">
  <diagram id="C5RBs43oDa-KdzZeNtuy" name="Page-1">
    <mxGraphModel dx="1173" dy="770" grid="1" gridSize="10" guides="1" tooltips="1" connect="1" arrows="1" fold="1" page="1" pageScale="1" pageWidth="827" pageHeight="1169" math="0" shadow="0">
      <root>
        <mxCell id="WIyWlLk6GJQsqaUBKTNV-0" />
        <mxCell id="WIyWlLk6GJQsqaUBKTNV-1" parent="WIyWlLk6GJQsqaUBKTNV-0" />
        <mxCell id="YRSLJG7PU9nOMNA2Xasd-1" value="" style="rounded=0;whiteSpace=wrap;html=1;" vertex="1" parent="WIyWlLk6GJQsqaUBKTNV-1">
          <mxGeometry x="70" y="160" width="120" height="60" as="geometry" />
        </mxCell>
        <mxCell id="YRSLJG7PU9nOMNA2Xasd-2" value="FullAircraftData" style="rounded=0;whiteSpace=wrap;html=1;" vertex="1" parent="WIyWlLk6GJQsqaUBKTNV-1">
          <mxGeometry x="85" y="167.5" width="90" height="45" as="geometry" />
        </mxCell>
        <mxCell id="YRSLJG7PU9nOMNA2Xasd-3" value="isDiagnosis" style="rhombus;whiteSpace=wrap;html=1;" vertex="1" parent="WIyWlLk6GJQsqaUBKTNV-1">
          <mxGeometry x="37.5" y="280" width="185" height="80" as="geometry" />
        </mxCell>
        <mxCell id="YRSLJG7PU9nOMNA2Xasd-4" value="isPrediction" style="rhombus;whiteSpace=wrap;html=1;" vertex="1" parent="WIyWlLk6GJQsqaUBKTNV-1">
          <mxGeometry x="25" y="420" width="210" height="80" as="geometry" />
        </mxCell>
        <mxCell id="YRSLJG7PU9nOMNA2Xasd-5" value="isReadness" style="rhombus;whiteSpace=wrap;html=1;" vertex="1" parent="WIyWlLk6GJQsqaUBKTNV-1">
          <mxGeometry x="12.5" y="550" width="235" height="80" as="geometry" />
        </mxCell>
        <mxCell id="YRSLJG7PU9nOMNA2Xasd-6" value="Calculate Failure Distribution" style="rounded=0;whiteSpace=wrap;html=1;" vertex="1" parent="WIyWlLk6GJQsqaUBKTNV-1">
          <mxGeometry x="310" y="290" width="120" height="60" as="geometry" />
        </mxCell>
        <mxCell id="YRSLJG7PU9nOMNA2Xasd-7" value="Calculate Readness coefficient" style="rounded=0;whiteSpace=wrap;html=1;" vertex="1" parent="WIyWlLk6GJQsqaUBKTNV-1">
          <mxGeometry x="500" y="290" width="120" height="60" as="geometry" />
        </mxCell>
        <mxCell id="YRSLJG7PU9nOMNA2Xasd-8" value="Create Report" style="rounded=0;whiteSpace=wrap;html=1;" vertex="1" parent="WIyWlLk6GJQsqaUBKTNV-1">
          <mxGeometry x="670" y="290" width="120" height="60" as="geometry" />
        </mxCell>
        <mxCell id="YRSLJG7PU9nOMNA2Xasd-9" value="Report" style="ellipse;whiteSpace=wrap;html=1;" vertex="1" parent="WIyWlLk6GJQsqaUBKTNV-1">
          <mxGeometry x="670" y="152.5" width="120" height="60" as="geometry" />
        </mxCell>
        <mxCell id="YRSLJG7PU9nOMNA2Xasd-10" value="" style="endArrow=classic;html=1;rounded=0;edgeStyle=orthogonalEdgeStyle;exitX=1;exitY=0.5;exitDx=0;exitDy=0;entryX=0;entryY=0.5;entryDx=0;entryDy=0;" edge="1" parent="WIyWlLk6GJQsqaUBKTNV-1" source="YRSLJG7PU9nOMNA2Xasd-3" target="YRSLJG7PU9nOMNA2Xasd-6">
          <mxGeometry width="50" height="50" relative="1" as="geometry">
            <mxPoint x="390" y="420" as="sourcePoint" />
            <mxPoint x="440" y="370" as="targetPoint" />
          </mxGeometry>
        </mxCell>
        <mxCell id="YRSLJG7PU9nOMNA2Xasd-11" value="" style="endArrow=classic;html=1;rounded=0;edgeStyle=orthogonalEdgeStyle;exitX=1;exitY=0.5;exitDx=0;exitDy=0;entryX=0;entryY=0.5;entryDx=0;entryDy=0;" edge="1" parent="WIyWlLk6GJQsqaUBKTNV-1" source="YRSLJG7PU9nOMNA2Xasd-6" target="YRSLJG7PU9nOMNA2Xasd-7">
          <mxGeometry width="50" height="50" relative="1" as="geometry">
            <mxPoint x="390" y="420" as="sourcePoint" />
            <mxPoint x="440" y="370" as="targetPoint" />
          </mxGeometry>
        </mxCell>
        <mxCell id="YRSLJG7PU9nOMNA2Xasd-12" value="" style="endArrow=classic;html=1;rounded=0;edgeStyle=orthogonalEdgeStyle;exitX=1;exitY=0.5;exitDx=0;exitDy=0;" edge="1" parent="WIyWlLk6GJQsqaUBKTNV-1" source="YRSLJG7PU9nOMNA2Xasd-7" target="YRSLJG7PU9nOMNA2Xasd-8">
          <mxGeometry width="50" height="50" relative="1" as="geometry">
            <mxPoint x="610" y="450" as="sourcePoint" />
            <mxPoint x="660" y="400" as="targetPoint" />
          </mxGeometry>
        </mxCell>
        <mxCell id="YRSLJG7PU9nOMNA2Xasd-13" value="" style="endArrow=classic;html=1;rounded=0;edgeStyle=orthogonalEdgeStyle;exitX=0.5;exitY=0;exitDx=0;exitDy=0;entryX=0.5;entryY=1;entryDx=0;entryDy=0;" edge="1" parent="WIyWlLk6GJQsqaUBKTNV-1" source="YRSLJG7PU9nOMNA2Xasd-8" target="YRSLJG7PU9nOMNA2Xasd-9">
          <mxGeometry width="50" height="50" relative="1" as="geometry">
            <mxPoint x="580" y="520" as="sourcePoint" />
            <mxPoint x="630" y="470" as="targetPoint" />
          </mxGeometry>
        </mxCell>
        <mxCell id="YRSLJG7PU9nOMNA2Xasd-14" value="" style="endArrow=classic;html=1;rounded=0;edgeStyle=orthogonalEdgeStyle;exitX=0.5;exitY=1;exitDx=0;exitDy=0;entryX=0.5;entryY=0;entryDx=0;entryDy=0;" edge="1" parent="WIyWlLk6GJQsqaUBKTNV-1" source="YRSLJG7PU9nOMNA2Xasd-1" target="YRSLJG7PU9nOMNA2Xasd-3">
          <mxGeometry width="50" height="50" relative="1" as="geometry">
            <mxPoint x="390" y="480" as="sourcePoint" />
            <mxPoint x="440" y="430" as="targetPoint" />
          </mxGeometry>
        </mxCell>
        <mxCell id="YRSLJG7PU9nOMNA2Xasd-15" value="" style="endArrow=classic;html=1;rounded=0;edgeStyle=orthogonalEdgeStyle;exitX=0.5;exitY=1;exitDx=0;exitDy=0;entryX=0.5;entryY=0;entryDx=0;entryDy=0;" edge="1" parent="WIyWlLk6GJQsqaUBKTNV-1" source="YRSLJG7PU9nOMNA2Xasd-3" target="YRSLJG7PU9nOMNA2Xasd-4">
          <mxGeometry width="50" height="50" relative="1" as="geometry">
            <mxPoint x="340" y="470" as="sourcePoint" />
            <mxPoint x="390" y="420" as="targetPoint" />
          </mxGeometry>
        </mxCell>
        <mxCell id="YRSLJG7PU9nOMNA2Xasd-16" value="" style="endArrow=classic;html=1;rounded=0;edgeStyle=orthogonalEdgeStyle;exitX=0.5;exitY=1;exitDx=0;exitDy=0;" edge="1" parent="WIyWlLk6GJQsqaUBKTNV-1" source="YRSLJG7PU9nOMNA2Xasd-4" target="YRSLJG7PU9nOMNA2Xasd-5">
          <mxGeometry width="50" height="50" relative="1" as="geometry">
            <mxPoint x="410" y="470" as="sourcePoint" />
            <mxPoint x="460" y="420" as="targetPoint" />
          </mxGeometry>
        </mxCell>
        <mxCell id="YRSLJG7PU9nOMNA2Xasd-17" value="" style="endArrow=classic;html=1;rounded=0;edgeStyle=orthogonalEdgeStyle;exitX=1;exitY=0.5;exitDx=0;exitDy=0;" edge="1" parent="WIyWlLk6GJQsqaUBKTNV-1" source="YRSLJG7PU9nOMNA2Xasd-4">
          <mxGeometry width="50" height="50" relative="1" as="geometry">
            <mxPoint x="340" y="480" as="sourcePoint" />
            <mxPoint x="320" y="460" as="targetPoint" />
          </mxGeometry>
        </mxCell>
        <mxCell id="YRSLJG7PU9nOMNA2Xasd-18" value="Calculate Failure Distribution" style="rounded=0;whiteSpace=wrap;html=1;" vertex="1" parent="WIyWlLk6GJQsqaUBKTNV-1">
          <mxGeometry x="320" y="430" width="120" height="60" as="geometry" />
        </mxCell>
        <mxCell id="YRSLJG7PU9nOMNA2Xasd-19" value="" style="endArrow=classic;html=1;rounded=0;edgeStyle=orthogonalEdgeStyle;exitX=1;exitY=0.5;exitDx=0;exitDy=0;entryX=0.5;entryY=1;entryDx=0;entryDy=0;" edge="1" parent="WIyWlLk6GJQsqaUBKTNV-1" source="YRSLJG7PU9nOMNA2Xasd-18" target="YRSLJG7PU9nOMNA2Xasd-8">
          <mxGeometry width="50" height="50" relative="1" as="geometry">
            <mxPoint x="530" y="480" as="sourcePoint" />
            <mxPoint x="580" y="430" as="targetPoint" />
          </mxGeometry>
        </mxCell>
        <mxCell id="YRSLJG7PU9nOMNA2Xasd-20" value="Calculate Failure Distribution" style="rounded=0;whiteSpace=wrap;html=1;" vertex="1" parent="WIyWlLk6GJQsqaUBKTNV-1">
          <mxGeometry x="320" y="560" width="120" height="60" as="geometry" />
        </mxCell>
        <mxCell id="YRSLJG7PU9nOMNA2Xasd-21" value="" style="endArrow=classic;html=1;rounded=0;edgeStyle=orthogonalEdgeStyle;exitX=1;exitY=0.5;exitDx=0;exitDy=0;entryX=0;entryY=0.5;entryDx=0;entryDy=0;" edge="1" parent="WIyWlLk6GJQsqaUBKTNV-1" source="YRSLJG7PU9nOMNA2Xasd-5" target="YRSLJG7PU9nOMNA2Xasd-20">
          <mxGeometry width="50" height="50" relative="1" as="geometry">
            <mxPoint x="220" y="700" as="sourcePoint" />
            <mxPoint x="270" y="650" as="targetPoint" />
          </mxGeometry>
        </mxCell>
        <mxCell id="YRSLJG7PU9nOMNA2Xasd-22" value="Calculate Readness coefficient" style="rounded=0;whiteSpace=wrap;html=1;" vertex="1" parent="WIyWlLk6GJQsqaUBKTNV-1">
          <mxGeometry x="510" y="560" width="120" height="60" as="geometry" />
        </mxCell>
        <mxCell id="YRSLJG7PU9nOMNA2Xasd-23" value="" style="endArrow=classic;html=1;rounded=0;edgeStyle=orthogonalEdgeStyle;exitX=1;exitY=0.5;exitDx=0;exitDy=0;" edge="1" parent="WIyWlLk6GJQsqaUBKTNV-1" source="YRSLJG7PU9nOMNA2Xasd-20">
          <mxGeometry width="50" height="50" relative="1" as="geometry">
            <mxPoint x="500" y="720" as="sourcePoint" />
            <mxPoint x="510" y="590" as="targetPoint" />
          </mxGeometry>
        </mxCell>
        <mxCell id="YRSLJG7PU9nOMNA2Xasd-24" value="Remove Failure Distribution" style="rounded=0;whiteSpace=wrap;html=1;" vertex="1" parent="WIyWlLk6GJQsqaUBKTNV-1">
          <mxGeometry x="670" y="560" width="120" height="60" as="geometry" />
        </mxCell>
        <mxCell id="YRSLJG7PU9nOMNA2Xasd-25" value="" style="endArrow=classic;html=1;rounded=0;edgeStyle=orthogonalEdgeStyle;exitX=1;exitY=0.5;exitDx=0;exitDy=0;" edge="1" parent="WIyWlLk6GJQsqaUBKTNV-1" source="YRSLJG7PU9nOMNA2Xasd-22">
          <mxGeometry width="50" height="50" relative="1" as="geometry">
            <mxPoint x="650" y="700" as="sourcePoint" />
            <mxPoint x="670" y="590" as="targetPoint" />
          </mxGeometry>
        </mxCell>
        <mxCell id="YRSLJG7PU9nOMNA2Xasd-26" value="" style="endArrow=classic;html=1;rounded=0;edgeStyle=orthogonalEdgeStyle;exitX=0.5;exitY=0;exitDx=0;exitDy=0;entryX=0.5;entryY=1;entryDx=0;entryDy=0;" edge="1" parent="WIyWlLk6GJQsqaUBKTNV-1" source="YRSLJG7PU9nOMNA2Xasd-24" target="YRSLJG7PU9nOMNA2Xasd-8">
          <mxGeometry width="50" height="50" relative="1" as="geometry">
            <mxPoint x="680" y="720" as="sourcePoint" />
            <mxPoint x="730" y="670" as="targetPoint" />
          </mxGeometry>
        </mxCell>
        <mxCell id="YRSLJG7PU9nOMNA2Xasd-27" value="Yes" style="text;html=1;strokeColor=none;fillColor=none;align=center;verticalAlign=middle;whiteSpace=wrap;rounded=0;" vertex="1" parent="WIyWlLk6GJQsqaUBKTNV-1">
          <mxGeometry x="235" y="280" width="60" height="30" as="geometry" />
        </mxCell>
        <mxCell id="YRSLJG7PU9nOMNA2Xasd-28" value="Yes" style="text;html=1;strokeColor=none;fillColor=none;align=center;verticalAlign=middle;whiteSpace=wrap;rounded=0;" vertex="1" parent="WIyWlLk6GJQsqaUBKTNV-1">
          <mxGeometry x="235" y="420" width="60" height="30" as="geometry" />
        </mxCell>
        <mxCell id="YRSLJG7PU9nOMNA2Xasd-29" value="Yes" style="text;html=1;strokeColor=none;fillColor=none;align=center;verticalAlign=middle;whiteSpace=wrap;rounded=0;" vertex="1" parent="WIyWlLk6GJQsqaUBKTNV-1">
          <mxGeometry x="235" y="550" width="60" height="30" as="geometry" />
        </mxCell>
        <mxCell id="YRSLJG7PU9nOMNA2Xasd-30" value="No" style="text;html=1;strokeColor=none;fillColor=none;align=center;verticalAlign=middle;whiteSpace=wrap;rounded=0;" vertex="1" parent="WIyWlLk6GJQsqaUBKTNV-1">
          <mxGeometry x="130" y="510" width="60" height="30" as="geometry" />
        </mxCell>
        <mxCell id="YRSLJG7PU9nOMNA2Xasd-31" value="No" style="text;html=1;strokeColor=none;fillColor=none;align=center;verticalAlign=middle;whiteSpace=wrap;rounded=0;" vertex="1" parent="WIyWlLk6GJQsqaUBKTNV-1">
          <mxGeometry x="130" y="370" width="60" height="30" as="geometry" />
        </mxCell>
      </root>
    </mxGraphModel>
  </diagram>
</mxfile>
